<svg viewBox="0 0 533 87" xmlns="http://www.w3.org/2000/svg" fill="#3d3d35">
    <path d="M21.267 57.513c0 9.717 5.988 11.413 8.7 11.413 5.084 0 8.135-4.181 8.135-8.022 0-4.407-3.503-5.763-16.384-11.187-5.875-2.373-20.451-8.248-20.451-23.954C1.267 8.928 16.52.001 30.532.001c11.525 0 27.796 5.875 28.135 25.988H37.538c-.452-2.825-1.13-8.135-7.684-8.135-3.729 0-7.344 2.599-7.344 6.553 0 3.842 2.26 4.859 17.288 11.638 15.593 7.005 19.547 14.237 19.547 23.954 0 13.333-7.005 26.779-29.151 26.779C8.274 86.778-.54 73.897.025 57.513h21.242zM83.302 85.196H60.139L93.245 1.582h18.417l32.089 83.614h-23.389l-3.955-12.09H87.142l-3.84 12.09zm18.191-58.19l-9.039 29.152h18.417l-9.378-29.152zM131.327 1.582h21.92l16.949 58.643 17.062-58.643h22.033l-28.022 83.614h-22.033L131.327 1.582zM294.149 33.333h25.085v18.756H294.15v14.35h25.987v18.756h-46.552v-5.537c-8.475 6.102-16.836 7.119-23.051 7.119-24.971 0-43.389-20-43.389-43.163C207.145 21.694 223.416 0 251.099 0c12.654 0 18.869 4.52 22.485 7.118V1.581h46.552v18.757h-25.987v12.995zm-65.648 10.395c0 9.604 6.44 24.293 22.372 24.293 14.915 0 22.599-12.655 22.599-24.971 0-13.333-8.7-24.293-22.485-24.293-15.254 0-22.485 13.107-22.485 24.858v.113h-.001zM351.666 1.582v50.507c0 2.825.112 6.779 1.469 10.056 1.469 3.277 4.181 5.875 9.378 5.875 5.311 0 8.022-2.373 9.266-5.423 1.355-3.164 1.355-7.231 1.355-10.508V1.582h21.355v50.507c0 14.011-3.051 20.226-8.361 25.649-5.424 5.537-12.994 9.04-23.389 9.04-6.102 0-17.175-1.469-24.067-8.926-6.893-7.571-8.361-13.446-8.361-25.762V1.583h21.355v-.001zM406.583 1.582h27.344c13.107 0 21.242 2.373 25.875 5.989 7.006 5.423 10.17 13.672 10.17 22.824 0 6.44-1.809 11.412-4.181 15.141-2.825 4.407-6.893 7.231-10.848 8.927l17.288 30.733h-22.033L428.39 44.858h3.503c5.423 0 10.056-.452 12.881-2.26 2.599-1.695 4.745-5.649 4.745-10.282 0-4.407-2.146-7.91-4.972-9.717-2.372-1.469-5.762-2.26-8.7-2.26h-7.909v64.857h-21.355V1.582zM494.042 57.513c0 9.717 5.988 11.413 8.7 11.413 5.085 0 8.136-4.181 8.136-8.022 0-4.407-3.503-5.763-16.384-11.187-5.876-2.373-20.452-8.248-20.452-23.954 0-16.835 15.254-25.762 29.265-25.762 11.525 0 27.796 5.875 28.136 25.988h-21.13c-.452-2.825-1.13-8.135-7.684-8.135-3.729 0-7.345 2.599-7.345 6.553 0 3.842 2.261 4.859 17.288 11.638 15.593 7.005 19.548 14.237 19.548 23.954 0 13.333-7.006 26.779-29.152 26.779-21.92 0-30.733-12.881-30.168-29.265h21.242z"/>
</svg>
